<?xml version="1.0" encoding="UTF-8" standalone="no"?>
<!-- Created with Inkscape (http://www.inkscape.org/) -->
<svg id="Layer_1" xmlns:rdf="http://www.w3.org/1999/02/22-rdf-syntax-ns#" xmlns="http://www.w3.org/2000/svg" xml:space="preserve" height="80" width="130" version="1.1" xmlns:cc="http://creativecommons.org/ns#" xmlns:dc="http://purl.org/dc/elements/1.1/" viewBox="0 0 130 80.000002"><metadata id="metadata27"><rdf:RDF><cc:Work rdf:about=""><dc:format>image/svg+xml</dc:format><dc:type rdf:resource="http://purl.org/dc/dcmitype/StillImage"/><dc:title/></cc:Work></rdf:RDF></metadata>
<g id="g2997"><path id="cognician" fill="#424342" d="m2.423,63.53c0-3.173,2.309-5.755,5.146-5.755,1.834,0,3.209,1.04,3.939,2.077h2.69c-1.123-2.605-3.507-4.085-6.63-4.085-4.315,0-7.569,3.323-7.569,7.73,0,4.371,3.254,7.666,7.569,7.666,3.147,0,5.544-1.48,6.663-4.085h-2.672c-0.8542,1.288-2.394,2.109-3.991,2.109-2.838,0-5.147-2.538-5.147-5.657m26.74,0.161c0,3.207-2.144,5.626-4.987,5.626s-4.987-2.419-4.987-5.626c0-3.28,2.144-5.754,4.987-5.754s4.987,2.474,4.987,5.754m2.392-0.03235c0-4.335-3.241-7.73-7.379-7.73-4.12,0-7.347,3.396-7.347,7.73,0,4.299,3.227,7.666,7.347,7.666,4.138,0,7.379-3.367,7.379-7.666m14.65,0.0145c0,1.35-0.4351,2.59-1.158,3.563-0.9449,1.231-2.37,2.017-3.962,2.017-2.886,0-5.147-2.443-5.147-5.562,0-3.173,2.261-5.658,5.147-5.658,1.948,0,3.647,1.197,4.52,2.957,0.3812,0.8018,0.5995,1.714,0.5995,2.683m2.386,7.367s0.03756-7.129,0.03756-7.399c0-4.398-3.255-7.716-7.571-7.716-2.879,0-5.128,1.258-6.341,3.492-0.7426,1.203-1.171,2.65-1.171,4.242,0,1.641,0.479,3.158,1.285,4.404,0.5608,0.9327,1.315,1.68,2.229,2.219,1.018,0.6404,2.194,1.011,3.449,1.011,0.07623,0,0.4392-0.000372,0.5485-0.000372,2.041,0,3.838-0.7419,5.173-1.979v1.789c0,3.644-1.96,5.818-5.242,5.818-1.365,0-3.07-0.5656-3.933-1.821h-2.816c0.9855,2.351,3.62,3.894,6.749,3.894,4.689-0.0015,7.602-3.049,7.602-7.955m14.15-0.09817h2.36v-8.592c0-3.96-2.448-6.421-6.388-6.421-3.818,0-6.484,2.64-6.484,6.421v8.592h2.36v-8.682c0-2.353,1.734-4.061,4.124-4.061,2.973,0,4.028,2.187,4.028,4.061v8.688zm6.898-0.000372h2.36v-14.6h-2.36v14.6zm7.995-7.25c0-3.173,2.309-5.754,5.147-5.754,1.834,0,3.209,1.04,3.939,2.077h2.69c-1.122-2.605-3.507-4.085-6.629-4.085-4.316,0-7.571,3.324-7.571,7.73,0,4.371,3.255,7.666,7.571,7.666,3.146,0,5.543-1.48,6.663-4.085h-2.673c-0.8546,1.288-2.394,2.109-3.99,2.109-2.838,0-5.147-2.538-5.147-5.658m14.99,7.25h2.36v-14.6h-2.36v14.6zm17.99-7.255c0,1.342-0.4299,2.576-1.144,3.547-0.9446,1.232-2.371,2.02-3.964,2.02-2.886,0-5.147-2.443-5.147-5.562,0-3.173,2.261-5.658,5.147-5.658,1.751,0,3.298,0.968,4.229,2.441,0.5548,0.9181,0.8795,2.024,0.8795,3.213m2.399,0.4667c0.002-0.03681,0.003-0.07326,0.005-0.1097v-0.7114c-0.0933-2.524-1.257-4.664-3.077-5.983-1.227-0.897-2.747-1.42-4.435-1.42-0.006,0-0.0119,0.0011-0.0178,0.0011-0.006,0-0.0123-0.0011-0.0182-0.0011-2.917,0-5.189,1.293-6.389,3.587-0.7058,1.184-1.113,2.594-1.113,4.143,0,1.471,0.3879,2.841,1.047,4.007,0.6909,1.354,1.757,2.363,3.107,2.973,0.7832,0.3804,1.642,0.6021,2.545,0.6396,0.2622,0.02231,0.5284,0.03756,0.8025,0.03756,2.16,0,4.053-0.8263,5.407-2.2v1.825h2.136v-6.792zm17,6.8v-8.592c0-3.96-2.448-6.421-6.388-6.421-3.818,0-6.484,2.64-6.484,6.421v8.592h2.36v-8.692c0-2.353,1.734-4.061,4.124-4.061,2.973,0,4.028,2.187,4.028,4.061v8.688h2.4z"/><g id="g2993"><path id="bubble" fill="#42bdf4" d="m77.36,18.32-0.0089,0.02529c-0.08442,0.1878-0.1963,0.3938-0.5597,0.663-0.1491,0.09222-0.8386,0.4046-1.21,0.4775l-0.473,0.09445,0.09371-0.2994c0.1692-0.5407,0.3544-0.9758,0.55-1.293,0.07809-0.1272,0.4492-0.4961,0.8906-0.4961,0.01599,0,0.03161,0.000372,0.04723,0.0015,0.3046,0.01822,0.4916,0.1443,0.6262,0.4206,0.03607,0.08999,0.07586,0.2927,0.04425,0.4057m-6.4-0.1283s-0.1272,0.6515-0.759,1.158c-0.05169,0.04091-0.1183,0.08999-0.1975,0.1417l-0.1019,0.06768-0.1023-0.06731c-0.07921-0.05206-0.1465-0.1011-0.1978-0.1421-0.6225-0.4987-0.7586-1.153-0.7594-1.159-0.1781-1.083,0.5169-1.422,0.7341-1.501,0.1168-0.03049,0.2153-0.04723,0.3098-0.05541l0.01599-0.0015,0.01562,0.0015c0.09483,0.0082,0.193,0.02529,0.2919,0.0502,0.2346,0.08404,0.9289,0.4232,0.7504,1.508m-6.317,1.389-0.4741-0.09483c-0.3708-0.07251-1.06-0.3845-1.196-0.4674-0.3767-0.2789-0.489-0.4849-0.5731-0.6727l-0.0093-0.02529c-0.03198-0.113,0.0086-0.3161,0.03905-0.3931,0.1398-0.2893,0.3272-0.415,0.6322-0.4332,0.01301-0.0011,0.02975-0.0015,0.04648-0.0015,0.4418,0,0.8125,0.3693,0.891,0.4961,0.196,0.3172,0.3812,0.7523,0.55,1.293l0.09371,0.2994zm25.63,2.031c0-9.56-8.707-16.6-18.67-16.6-9.957,0-18.03,7.749-18.03,17.31,0,4.937,3.437,8.827,6.58,11.97,1.132,1.132-0.6794,2.491-0.6794,2.491l-7.8,5.658,13.98-2.816c1.137-0.6493,3.06-2.069,2.994-4.233l-2.76-14.79,8.35-0.28-2.78,14.67s-0.6772,4.004,5.227,4.094c1.098-0.1506,1.946-0.3901,1.946-0.3901,7.427-2.14,11.66-9.285,11.66-17.11"/><path id="outline" fill="#424342" d="m75.98,18.1c0.04946-0.08032,0.3358-0.367,0.6597-0.367,0.01041,0,0.0212,0.000372,0.03198,0.0011,0.2142,0.01264,0.3291,0.08999,0.4236,0.2849,0.0238,0.06024,0.04314,0.199,0.02975,0.2466-0.06768,0.1517-0.1551,0.312-0.4507,0.5314-0.1134,0.06954-0.714,0.3399-1.023,0.4001l-0.1499,0.03012c0.1316-0.4213,0.2912-0.8241,0.4786-1.127m-11.81,1.11c-0.3087-0.06024-0.9092-0.3306-1.023-0.4001-0.2956-0.2194-0.3834-0.3797-0.4511-0.5314-0.01339-0.0476,0.006-0.1863,0.02975-0.2466,0.09483-0.1949,0.209-0.2722,0.4236-0.2849,0.01078-0.000744,0.02157-0.0011,0.03235-0.0011,0.3239,0,0.6102,0.2867,0.6597,0.367,0.1871,0.3031,0.347,0.7058,0.4786,1.127l-0.1502-0.03012zm19.43,12.45c-2.019,2.739-4.714,4.373-7.806,4.92-0.5069,0.08999-1.227,0.2562-1.929,0.1052-1.361-0.2923-1.429-1.767-1.415-2.013l2.591-13.34c0.1975-0.0383,0.3875-0.07623,0.5686-0.1123l0.4143-0.08256c0.6221-0.1216,1.53-0.5388,1.816-0.7497,0.653-0.4849,0.92-0.9602,1.079-1.32,0.325-0.7315,0.1145-1.537-0.06136-1.897-0.4072-0.8386-1.144-1.332-2.074-1.387-1.11-0.06991-2.067,0.6251-2.481,1.295-0.4596,0.7445-0.7623,1.746-0.9494,2.558-0.3258,0.05095-0.6619,0.09185-0.9985,0.1276,0.7939-1.759,0.4277-2.975-0.02083-3.686-0.4232-0.6705-1.256-1.266-2.424-1.229-1.168-0.03719-2.001,0.5586-2.425,1.229-0.4481,0.7114-0.814,1.927-0.02045,3.686-0.3362-0.0357-0.6723-0.07661-0.9985-0.1276-0.1867-0.8114-0.4894-1.813-0.9494-2.558-0.4135-0.6701-1.37-1.365-2.481-1.295-0.9304,0.05504-1.667,0.5481-2.074,1.387-0.1759,0.3603-0.386,1.166-0.06136,1.897,0.1595,0.36,0.4262,0.8352,1.08,1.32,0.2856,0.2109,1.193,0.6281,1.815,0.7497l0.4143,0.08256c0.1811,0.03607,0.3711,0.074,0.569,0.1123l2.54,13.72c0.0022,0.8943,0.5307,2.033-2.495,2.861-3.711,0.8877-7.423,1.772-11.13,2.657,1.049-0.8233,2.097-1.647,3.146-2.469,0.5742-0.4496,1.154-0.8929,1.727-1.344,0.7318-0.5764,0.9163-0.9431,0.5511-1.405-0.07512-0.2347-0.3012-0.4782-0.6947-0.7794-1.953-1.495-3.521-3.255-4.687-5.287-0.6437-1.171-1.164-2.427-1.541-3.779-2.769-9.926,3.927-20.25,14.11-21.77,7.697-1.15,14.98,2.594,18.47,9.017,0.7679,1.477,1.339,3.091,1.67,4.816,0.9609,5.009,0.2785,9.862-2.838,14.09m-13.96-14.83c0.08293-0.02082,0.1718-0.03719,0.2625-0.045,0.09036,0.0078,0.1792,0.02417,0.2625,0.045,0.2469,0.08888,0.7623,0.3867,0.6128,1.297-0.0011,0.0059-0.1302,0.5924-0.6917,1.042-0.0476,0.0383-0.1104,0.08367-0.1837,0.132-0.07326-0.04834-0.1361-0.09371-0.1837-0.132-0.5619-0.45-0.6909-1.036-0.6921-1.042-0.1495-0.9103,0.3663-1.208,0.6132-1.297m19.38,2.9c-0.22-2.9-0.93-5.49-2.11-7.77-1.82-3.692-4.85-6.57-9.01-8.605-5.57-2.731-11.28-2.55-16.98-0.092-10.68,4.603-14.42,16.84-9.56,26.25,1.075,2.167,2.602,4.19,4.599,5.947,0.1183,0.1041,0.2361,0.2149,0.3577,0.3302-1.199,0.9379-2.322,1.819-3.445,2.696-1.436,1.122-2.872,2.246-4.316,3.358-0.3994,0.3079-0.5682,0.6065-0.3269,1.21,0.3525,0.7802,1.422,0.5392,1.541,0.5106,4.034-0.9669,8.071-1.923,12.1-2.908,1.392-0.3406,2.786-0.6846,4.155-1.105,0,0,1-0.2611,1.662-0.7419,0.000744-0.000743,0.0019-0.0015,0.003-0.0022,0.9163-0.6679,1.802-1.789,1.669-3.446l-2.53-13.7c0.6247,0.07958,5.511,0.07958,6.136,0l-2.494,12.89c-0.228,2.854,2.468,4.068,3.238,4.155l0.09855,0.01711c0.9895,0.1209,2.596-0.2317,3.922-0.6549,3.552-1.133,6.468-3.11,8.498-6.267,2.365-3.679,3.106-7.785,2.788-12.06"/></g></g>
</svg>
